<?xml version="1.0" encoding="UTF-8" standalone="no"?>
<!-- Created with Inkscape (http://www.inkscape.org/) -->

<svg
   xmlns:dc="http://purl.org/dc/elements/1.1/"
   xmlns:cc="http://creativecommons.org/ns#"
   xmlns:rdf="http://www.w3.org/1999/02/22-rdf-syntax-ns#"
   xmlns:svg="http://www.w3.org/2000/svg"
   xmlns="http://www.w3.org/2000/svg"
   xmlns:sodipodi="http://sodipodi.sourceforge.net/DTD/sodipodi-0.dtd"
   xmlns:inkscape="http://www.inkscape.org/namespaces/inkscape"
   id="svg3006"
   version="1.1"
   inkscape:version="0.48.3.1 r9886"
   width="744.09448"
   height="1052.3622"
   xml:space="preserve"
   sodipodi:docname="Humax.svg"><metadata
     id="metadata3012"><rdf:RDF><cc:Work
         rdf:about=""><dc:format>image/svg+xml</dc:format><dc:type
           rdf:resource="http://purl.org/dc/dcmitype/StillImage" /><dc:title /></cc:Work></rdf:RDF></metadata><defs
     id="defs3010" /><sodipodi:namedview
     pagecolor="#ffffff"
     bordercolor="#666666"
     borderopacity="1"
     objecttolerance="10"
     gridtolerance="10"
     guidetolerance="10"
     inkscape:pageopacity="0"
     inkscape:pageshadow="2"
     inkscape:window-width="1525"
     inkscape:window-height="983"
     id="namedview3008"
     showgrid="false"
     inkscape:zoom="0.87724086"
     inkscape:cx="508.29078"
     inkscape:cy="533.51424"
     inkscape:window-x="137"
     inkscape:window-y="1245"
     inkscape:window-maximized="0"
     inkscape:current-layer="g3014" /><g
     inkscape:groupmode="layer"
     id="layer1"
     inkscape:label="Background"
     style="display:inline" /><g
     id="g3014"
     inkscape:groupmode="layer"
     inkscape:label="Humax Remote"
     transform="matrix(1.25,0,0,-1.25,0,1052.3622)"><rect
   style="fill:#000000;fill-opacity:1;stroke:#ff0000;stroke-width:1;stroke-linejoin:round;stroke-miterlimit:4;stroke-opacity:1;stroke-dasharray:none;stroke-dashoffset:0"
   id="rect3086"
   width="193.94125"
   height="881.40778"
   x="282.23972"
   y="96.84671"
   transform="matrix(0.8,0,0,-0.8,0,841.88976)"
   ry="48.879505" /><g
   id="g27438943"
   transform="translate(-36.26544,0.63070635)"
   key="KEY_1"
   inkscape:label="#KEY_1"
   class="key"><path
   transform="matrix(0.8,0,0,-0.8,35.758135,841.88976)"
   d="m 343.33911,226.92924 a 16.161772,16.161772 0 1 1 -32.32354,0 16.161772,16.161772 0 1 1 32.32354,0 z"
   sodipodi:ry="16.161772"
   sodipodi:rx="16.161772"
   sodipodi:cy="226.92924"
   sodipodi:cx="327.17734"
   id="KEY_1"
   style="fill:#000000;fill-rule:evenodd;stroke:#ffffff;stroke-width:1px;stroke-linecap:butt;stroke-linejoin:miter;stroke-opacity:1"
   sodipodi:type="arc"
   inkscape:label="#path3020" /><text
   transform="scale(1,-1)"
   sodipodi:linespacing="125%"
   id="text3790"
   y="-660.34637"
   x="297.39062"
   style="font-size:12.80000019px;font-style:normal;font-weight:normal;text-align:center;line-height:125%;letter-spacing:0px;word-spacing:0px;text-anchor:middle;fill:#ffffff;fill-opacity:1;stroke:none;font-family:Sans"
   xml:space="preserve"><tspan
     y="-660.34637"
     x="297.39062"
     id="tspan3792"
     sodipodi:role="line">1</tspan></text>



<text
   transform="scale(1,-1)"
   sodipodi:linespacing="125%"
   id="text3794"
   y="-651.51654"
   x="297.51562"
   style="font-size:8px;font-style:normal;font-weight:normal;text-align:center;line-height:125%;letter-spacing:0px;word-spacing:0px;text-anchor:middle;fill:#ffffff;fill-opacity:1;stroke:none;font-family:Sans"
   xml:space="preserve"><tspan
     y="-651.51654"
     x="297.51562"
     id="tspan3796"
     sodipodi:role="line">@</tspan></text>



</g><g
   transform="translate(6.149363,0.63070635)"
   id="g3821"
   key="KEY_2"
   class="key"><path
   sodipodi:type="arc"
   style="fill:#000000;fill-rule:evenodd;stroke:#ffffff;stroke-width:1px;stroke-linecap:butt;stroke-linejoin:miter;stroke-opacity:1"
   id="path3823"
   sodipodi:cx="327.17734"
   sodipodi:cy="226.92924"
   sodipodi:rx="16.161772"
   sodipodi:ry="16.161772"
   d="m 343.33911,226.92924 a 16.161772,16.161772 0 1 1 -32.32354,0 16.161772,16.161772 0 1 1 32.32354,0 z"
   transform="matrix(0.8,0,0,-0.8,35.758135,841.88976)" /><text
   xml:space="preserve"
   style="font-size:12.80000019px;font-style:normal;font-weight:normal;text-align:center;line-height:125%;letter-spacing:0px;word-spacing:0px;text-anchor:middle;fill:#ffffff;fill-opacity:1;stroke:none;font-family:Sans"
   x="297.39062"
   y="-660.34637"
   id="text3825"
   sodipodi:linespacing="125%"
   transform="scale(1,-1)"><tspan
     sodipodi:role="line"
     id="tspan3827"
     x="297.39062"
     y="-660.34637">2</tspan></text>



<text
   xml:space="preserve"
   style="font-size:8px;font-style:normal;font-weight:normal;text-align:center;line-height:125%;letter-spacing:0px;word-spacing:0px;text-anchor:middle;fill:#ffffff;fill-opacity:1;stroke:none;font-family:Sans"
   x="297.51562"
   y="-651.51654"
   id="text3829"
   sodipodi:linespacing="125%"
   transform="scale(1,-1)"><tspan
     sodipodi:role="line"
     id="tspan3831"
     x="297.51562"
     y="-651.51654">abc</tspan></text>



</g><g
   id="g3833"
   transform="translate(48.564154,0.63070635)"
   key="KEY_3"
   class="key"><path
   transform="matrix(0.8,0,0,-0.8,35.758135,841.88976)"
   d="m 343.33911,226.92924 a 16.161772,16.161772 0 1 1 -32.32354,0 16.161772,16.161772 0 1 1 32.32354,0 z"
   sodipodi:ry="16.161772"
   sodipodi:rx="16.161772"
   sodipodi:cy="226.92924"
   sodipodi:cx="327.17734"
   id="path3835"
   style="fill:#000000;fill-rule:evenodd;stroke:#ffffff;stroke-width:1px;stroke-linecap:butt;stroke-linejoin:miter;stroke-opacity:1"
   sodipodi:type="arc" /><text
   transform="scale(1,-1)"
   sodipodi:linespacing="125%"
   id="text3837"
   y="-660.34637"
   x="297.39062"
   style="font-size:12.80000019px;font-style:normal;font-weight:normal;text-align:center;line-height:125%;letter-spacing:0px;word-spacing:0px;text-anchor:middle;fill:#ffffff;fill-opacity:1;stroke:none;font-family:Sans"
   xml:space="preserve"><tspan
     y="-660.34637"
     x="297.39062"
     id="tspan3839"
     sodipodi:role="line">3</tspan></text>



<text
   transform="scale(1,-1)"
   sodipodi:linespacing="125%"
   id="text3841"
   y="-651.51654"
   x="297.51562"
   style="font-size:8px;font-style:normal;font-weight:normal;text-align:center;line-height:125%;letter-spacing:0px;word-spacing:0px;text-anchor:middle;fill:#ffffff;fill-opacity:1;stroke:none;font-family:Sans"
   xml:space="preserve"><tspan
     y="-651.51654"
     x="297.51562"
     id="tspan3843"
     sodipodi:role="line">def</tspan></text>



</g><g
   transform="translate(-36.265439,-34.898917)"
   id="g3925"
   key="KEY_4"
   class="key"><path
   sodipodi:type="arc"
   style="fill:#000000;fill-rule:evenodd;stroke:#ffffff;stroke-width:1px;stroke-linecap:butt;stroke-linejoin:miter;stroke-opacity:1"
   id="path3927"
   sodipodi:cx="327.17734"
   sodipodi:cy="226.92924"
   sodipodi:rx="16.161772"
   sodipodi:ry="16.161772"
   d="m 343.33911,226.92924 a 16.161772,16.161772 0 1 1 -32.32354,0 16.161772,16.161772 0 1 1 32.32354,0 z"
   transform="matrix(0.8,0,0,-0.8,35.758135,841.88976)" /><text
   xml:space="preserve"
   style="font-size:12.80000019px;font-style:normal;font-weight:normal;text-align:center;line-height:125%;letter-spacing:0px;word-spacing:0px;text-anchor:middle;fill:#ffffff;fill-opacity:1;stroke:none;font-family:Sans"
   x="297.39062"
   y="-660.34637"
   id="text3929"
   sodipodi:linespacing="125%"
   transform="scale(1,-1)"><tspan
     sodipodi:role="line"
     id="tspan3931"
     x="297.39062"
     y="-660.34637">4</tspan></text>



<text
   xml:space="preserve"
   style="font-size:8px;font-style:normal;font-weight:normal;text-align:center;line-height:125%;letter-spacing:0px;word-spacing:0px;text-anchor:middle;fill:#ffffff;fill-opacity:1;stroke:none;font-family:Sans"
   x="297.51562"
   y="-651.51654"
   id="text3933"
   sodipodi:linespacing="125%"
   transform="scale(1,-1)"><tspan
     sodipodi:role="line"
     id="tspan3935"
     x="297.51562"
     y="-651.51654">ghi</tspan></text>



</g><g
   id="g3937"
   transform="translate(6.149363,-34.898917)"
   key="KEY_5"
   class="key"><path
   transform="matrix(0.8,0,0,-0.8,35.758135,841.88976)"
   d="m 343.33911,226.92924 a 16.161772,16.161772 0 1 1 -32.32354,0 16.161772,16.161772 0 1 1 32.32354,0 z"
   sodipodi:ry="16.161772"
   sodipodi:rx="16.161772"
   sodipodi:cy="226.92924"
   sodipodi:cx="327.17734"
   id="path3939"
   style="fill:#000000;fill-rule:evenodd;stroke:#ffffff;stroke-width:1px;stroke-linecap:butt;stroke-linejoin:miter;stroke-opacity:1"
   sodipodi:type="arc" /><text
   transform="scale(1,-1)"
   sodipodi:linespacing="125%"
   id="text3941"
   y="-660.34637"
   x="297.39062"
   style="font-size:12.80000019px;font-style:normal;font-weight:normal;text-align:center;line-height:125%;letter-spacing:0px;word-spacing:0px;text-anchor:middle;fill:#ffffff;fill-opacity:1;stroke:none;font-family:Sans"
   xml:space="preserve"><tspan
     y="-660.34637"
     x="297.39062"
     id="tspan3943"
     sodipodi:role="line">5</tspan></text>



<text
   transform="scale(1,-1)"
   sodipodi:linespacing="125%"
   id="text3945"
   y="-651.51654"
   x="297.51562"
   style="font-size:8px;font-style:normal;font-weight:normal;text-align:center;line-height:125%;letter-spacing:0px;word-spacing:0px;text-anchor:middle;fill:#ffffff;fill-opacity:1;stroke:none;font-family:Sans"
   xml:space="preserve"><tspan
     y="-651.51654"
     x="297.51562"
     id="tspan3947"
     sodipodi:role="line">jkl</tspan></text>



</g><g
   transform="translate(48.564154,-34.898917)"
   id="g3949"
   key="KEY_6"
   class="key"><path
   sodipodi:type="arc"
   style="fill:#000000;fill-rule:evenodd;stroke:#ffffff;stroke-width:1px;stroke-linecap:butt;stroke-linejoin:miter;stroke-opacity:1"
   id="path3951"
   sodipodi:cx="327.17734"
   sodipodi:cy="226.92924"
   sodipodi:rx="16.161772"
   sodipodi:ry="16.161772"
   d="m 343.33911,226.92924 a 16.161772,16.161772 0 1 1 -32.32354,0 16.161772,16.161772 0 1 1 32.32354,0 z"
   transform="matrix(0.8,0,0,-0.8,35.758135,841.88976)" /><text
   xml:space="preserve"
   style="font-size:12.80000019px;font-style:normal;font-weight:normal;text-align:center;line-height:125%;letter-spacing:0px;word-spacing:0px;text-anchor:middle;fill:#ffffff;fill-opacity:1;stroke:none;font-family:Sans"
   x="297.39062"
   y="-660.34637"
   id="text3953"
   sodipodi:linespacing="125%"
   transform="scale(1,-1)"><tspan
     sodipodi:role="line"
     id="tspan3955"
     x="297.39062"
     y="-660.34637">6</tspan></text>



<text
   xml:space="preserve"
   style="font-size:8px;font-style:normal;font-weight:normal;text-align:center;line-height:125%;letter-spacing:0px;word-spacing:0px;text-anchor:middle;fill:#ffffff;fill-opacity:1;stroke:none;font-family:Sans"
   x="297.51562"
   y="-651.51654"
   id="text3957"
   sodipodi:linespacing="125%"
   transform="scale(1,-1)"><tspan
     sodipodi:role="line"
     id="tspan3959"
     x="297.51562"
     y="-651.51654">mno</tspan></text>



</g><g
   id="g3961"
   transform="translate(-36.265439,-70.42853)"
   key="KEY_7"
   class="key"><path
   transform="matrix(0.8,0,0,-0.8,35.758135,841.88976)"
   d="m 343.33911,226.92924 a 16.161772,16.161772 0 1 1 -32.32354,0 16.161772,16.161772 0 1 1 32.32354,0 z"
   sodipodi:ry="16.161772"
   sodipodi:rx="16.161772"
   sodipodi:cy="226.92924"
   sodipodi:cx="327.17734"
   id="path3963"
   style="fill:#000000;fill-rule:evenodd;stroke:#ffffff;stroke-width:1px;stroke-linecap:butt;stroke-linejoin:miter;stroke-opacity:1"
   sodipodi:type="arc" /><text
   transform="scale(1,-1)"
   sodipodi:linespacing="125%"
   id="text3965"
   y="-660.34637"
   x="297.39062"
   style="font-size:12.80000019px;font-style:normal;font-weight:normal;text-align:center;line-height:125%;letter-spacing:0px;word-spacing:0px;text-anchor:middle;fill:#ffffff;fill-opacity:1;stroke:none;font-family:Sans"
   xml:space="preserve"><tspan
     y="-660.34637"
     x="297.39062"
     id="tspan3967"
     sodipodi:role="line">7</tspan></text>



<text
   transform="scale(1,-1)"
   sodipodi:linespacing="125%"
   id="text3969"
   y="-651.51654"
   x="297.51562"
   style="font-size:8px;font-style:normal;font-weight:normal;text-align:center;line-height:125%;letter-spacing:0px;word-spacing:0px;text-anchor:middle;fill:#ffffff;fill-opacity:1;stroke:none;font-family:Sans"
   xml:space="preserve"><tspan
     y="-651.51654"
     x="297.51562"
     id="tspan3971"
     sodipodi:role="line">pqrs</tspan></text>



</g><g
   transform="translate(6.149363,-70.42853)"
   id="g3973"
   key="KEY_8"
   class="key"><path
   sodipodi:type="arc"
   style="fill:#000000;fill-rule:evenodd;stroke:#ffffff;stroke-width:1px;stroke-linecap:butt;stroke-linejoin:miter;stroke-opacity:1"
   id="path3975"
   sodipodi:cx="327.17734"
   sodipodi:cy="226.92924"
   sodipodi:rx="16.161772"
   sodipodi:ry="16.161772"
   d="m 343.33911,226.92924 a 16.161772,16.161772 0 1 1 -32.32354,0 16.161772,16.161772 0 1 1 32.32354,0 z"
   transform="matrix(0.8,0,0,-0.8,35.758135,841.88976)" /><text
   xml:space="preserve"
   style="font-size:12.80000019px;font-style:normal;font-weight:normal;text-align:center;line-height:125%;letter-spacing:0px;word-spacing:0px;text-anchor:middle;fill:#ffffff;fill-opacity:1;stroke:none;font-family:Sans"
   x="297.39062"
   y="-660.34637"
   id="text3977"
   sodipodi:linespacing="125%"
   transform="scale(1,-1)"><tspan
     sodipodi:role="line"
     id="tspan3979"
     x="297.39062"
     y="-660.34637">8</tspan></text>



<text
   xml:space="preserve"
   style="font-size:8px;font-style:normal;font-weight:normal;text-align:center;line-height:125%;letter-spacing:0px;word-spacing:0px;text-anchor:middle;fill:#ffffff;fill-opacity:1;stroke:none;font-family:Sans"
   x="297.51562"
   y="-651.51654"
   id="text3981"
   sodipodi:linespacing="125%"
   transform="scale(1,-1)"><tspan
     sodipodi:role="line"
     id="tspan3983"
     x="297.51562"
     y="-651.51654">tuv</tspan></text>



</g><g
   id="g3985"
   transform="translate(48.564154,-70.42853)"
   key="KEY_9"
   class="key"><path
   transform="matrix(0.8,0,0,-0.8,35.758135,841.88976)"
   d="m 343.33911,226.92924 a 16.161772,16.161772 0 1 1 -32.32354,0 16.161772,16.161772 0 1 1 32.32354,0 z"
   sodipodi:ry="16.161772"
   sodipodi:rx="16.161772"
   sodipodi:cy="226.92924"
   sodipodi:cx="327.17734"
   id="path3987"
   style="fill:#000000;fill-rule:evenodd;stroke:#ffffff;stroke-width:1px;stroke-linecap:butt;stroke-linejoin:miter;stroke-opacity:1"
   sodipodi:type="arc" /><text
   transform="scale(1,-1)"
   sodipodi:linespacing="125%"
   id="text3989"
   y="-660.34637"
   x="297.39062"
   style="font-size:12.80000019px;font-style:normal;font-weight:normal;text-align:center;line-height:125%;letter-spacing:0px;word-spacing:0px;text-anchor:middle;fill:#ffffff;fill-opacity:1;stroke:none;font-family:Sans"
   xml:space="preserve"><tspan
     y="-660.34637"
     x="297.39062"
     id="tspan3991"
     sodipodi:role="line">9</tspan></text>



<text
   transform="scale(1,-1)"
   sodipodi:linespacing="125%"
   id="text3993"
   y="-651.51654"
   x="297.51562"
   style="font-size:8px;font-style:normal;font-weight:normal;text-align:center;line-height:125%;letter-spacing:0px;word-spacing:0px;text-anchor:middle;fill:#ffffff;fill-opacity:1;stroke:none;font-family:Sans"
   xml:space="preserve"><tspan
     y="-651.51654"
     x="297.51562"
     id="tspan3995"
     sodipodi:role="line">wxyz</tspan></text>



</g><g
   transform="translate(-36.265439,-105.95815)"
   id="g3997"
   class="key"><path
   sodipodi:type="arc"
   style="fill:#000000;fill-rule:evenodd;stroke:#ffffff;stroke-width:1px;stroke-linecap:butt;stroke-linejoin:miter;stroke-opacity:1"
   id="path3999"
   sodipodi:cx="327.17734"
   sodipodi:cy="226.92924"
   sodipodi:rx="16.161772"
   sodipodi:ry="16.161772"
   d="m 343.33911,226.92924 a 16.161772,16.161772 0 1 1 -32.32354,0 16.161772,16.161772 0 1 1 32.32354,0 z"
   transform="matrix(0.8,0,0,-0.8,35.758135,841.88976)" /><text
   xml:space="preserve"
   style="font-size:12.80000019px;font-style:normal;font-weight:normal;text-align:center;line-height:125%;letter-spacing:0px;word-spacing:0px;text-anchor:middle;fill:#ffffff;fill-opacity:1;stroke:none;font-family:Sans"
   x="297.39062"
   y="-660.34637"
   id="text4001"
   sodipodi:linespacing="125%"
   transform="scale(1,-1)"><tspan
     sodipodi:role="line"
     id="tspan4003"
     x="297.39062"
     y="-660.34637" /></text>



<text
   xml:space="preserve"
   style="font-size:8px;font-style:normal;font-weight:normal;text-align:center;line-height:125%;letter-spacing:0px;word-spacing:0px;text-anchor:middle;fill:#ffffff;fill-opacity:1;stroke:none;font-family:Sans"
   x="297.51562"
   y="-651.51654"
   id="text4005"
   sodipodi:linespacing="125%"
   transform="scale(1,-1)"><tspan
     sodipodi:role="line"
     id="tspan4007"
     x="297.51562"
     y="-651.51654">AD</tspan></text>



</g><g
   id="g4009"
   transform="translate(6.149363,-105.95815)"
   key="KEY_0"
   class="key"><path
   transform="matrix(0.8,0,0,-0.8,35.758135,841.88976)"
   d="m 343.33911,226.92924 a 16.161772,16.161772 0 1 1 -32.32354,0 16.161772,16.161772 0 1 1 32.32354,0 z"
   sodipodi:ry="16.161772"
   sodipodi:rx="16.161772"
   sodipodi:cy="226.92924"
   sodipodi:cx="327.17734"
   id="path4011"
   style="fill:#000000;fill-rule:evenodd;stroke:#ffffff;stroke-width:1px;stroke-linecap:butt;stroke-linejoin:miter;stroke-opacity:1"
   sodipodi:type="arc" /><text
   transform="scale(1,-1)"
   sodipodi:linespacing="125%"
   id="text4013"
   y="-660.34637"
   x="297.39062"
   style="font-size:12.80000019px;font-style:normal;font-weight:normal;text-align:center;line-height:125%;letter-spacing:0px;word-spacing:0px;text-anchor:middle;fill:#ffffff;fill-opacity:1;stroke:none;font-family:Sans"
   xml:space="preserve"><tspan
     y="-660.34637"
     x="297.39062"
     id="tspan4015"
     sodipodi:role="line">0</tspan></text>



<text
   transform="scale(1,-1)"
   sodipodi:linespacing="125%"
   id="text4017"
   y="-651.51654"
   x="297.51562"
   style="font-size:8px;font-style:normal;font-weight:normal;text-align:center;line-height:125%;letter-spacing:0px;word-spacing:0px;text-anchor:middle;fill:#ffffff;fill-opacity:1;stroke:none;font-family:Sans"
   xml:space="preserve"><tspan
     y="-651.51654"
     x="297.51562"
     id="tspan4019"
     sodipodi:role="line">_</tspan></text>



</g><g
   transform="translate(48.564154,-105.95815)"
   id="g4021"
   class="key"><path
   sodipodi:type="arc"
   style="fill:#000000;fill-rule:evenodd;stroke:#ffffff;stroke-width:1px;stroke-linecap:butt;stroke-linejoin:miter;stroke-opacity:1"
   id="path4023"
   sodipodi:cx="327.17734"
   sodipodi:cy="226.92924"
   sodipodi:rx="16.161772"
   sodipodi:ry="16.161772"
   d="m 343.33911,226.92924 a 16.161772,16.161772 0 1 1 -32.32354,0 16.161772,16.161772 0 1 1 32.32354,0 z"
   transform="matrix(0.8,0,0,-0.8,35.758135,841.88976)" /><text
   xml:space="preserve"
   style="font-size:11.19999981px;font-style:normal;font-weight:normal;text-align:center;line-height:125%;letter-spacing:0px;word-spacing:0px;text-anchor:middle;fill:#ffffff;fill-opacity:1;stroke:none;font-family:Sans"
   x="297.39062"
   y="-660.34637"
   id="text4025"
   sodipodi:linespacing="125%"
   transform="scale(1,-1)"><tspan
     sodipodi:role="line"
     id="tspan4027"
     x="297.39062"
     y="-660.34637">DEL</tspan></text>



<text
   xml:space="preserve"
   style="font-size:8px;font-style:normal;font-weight:normal;text-align:center;line-height:125%;letter-spacing:0px;word-spacing:0px;text-anchor:middle;fill:#ffffff;fill-opacity:1;stroke:none;font-family:Sans"
   x="297.51562"
   y="-651.51654"
   id="text4029"
   sodipodi:linespacing="125%"
   transform="scale(1,-1)"><tspan
     sodipodi:role="line"
     id="tspan4031"
     x="297.51562"
     y="-651.51654">SUB</tspan></text>



</g><path
   sodipodi:type="arc"
   style="display:inline;fill:#ff0000;stroke:#ffffff"
   id="path4076"
   sodipodi:cx="313.85461"
   sodipodi:cy="463.67575"
   sodipodi:rx="11.706833"
   sodipodi:ry="11.706833"
   d="m 325.56145,463.67575 c 0,6.46551 -5.24133,11.70683 -11.70684,11.70683 -6.4655,0 -11.70683,-5.24132 -11.70683,-11.70683 0,-6.4655 5.24133,-11.70683 11.70683,-11.70683 6.46551,0 11.70684,5.24133 11.70684,11.70683 z"
   transform="matrix(0.8,0,0,-0.8,0,842.78171)" /><path
   transform="matrix(0.8,0,0,-0.8,35.231991,842.78171)"
   d="m 325.56145,463.67575 c 0,6.46551 -5.24133,11.70683 -11.70684,11.70683 -6.4655,0 -11.70683,-5.24132 -11.70683,-11.70683 0,-6.4655 5.24133,-11.70683 11.70683,-11.70683 6.46551,0 11.70684,5.24133 11.70684,11.70683 z"
   sodipodi:ry="11.706833"
   sodipodi:rx="11.706833"
   sodipodi:cy="463.67575"
   sodipodi:cx="313.85461"
   id="path4080"
   style="display:inline;fill:#008000;stroke:#ffffff"
   sodipodi:type="arc" /><path
   sodipodi:type="arc"
   style="display:inline;fill:#ffff00;stroke:#ffffff"
   id="path4082"
   sodipodi:cx="313.85461"
   sodipodi:cy="463.67575"
   sodipodi:rx="11.706833"
   sodipodi:ry="11.706833"
   d="m 325.56145,463.67575 c 0,6.46551 -5.24133,11.70683 -11.70684,11.70683 -6.4655,0 -11.70683,-5.24132 -11.70683,-11.70683 0,-6.4655 5.24133,-11.70683 11.70683,-11.70683 6.46551,0 11.70684,5.24133 11.70684,11.70683 z"
   transform="matrix(0.8,0,0,-0.8,70.018008,842.78171)" /><path
   transform="matrix(0.8,0,0,-0.8,103.02013,842.78171)"
   d="m 325.56145,463.67575 c 0,6.46551 -5.24133,11.70683 -11.70684,11.70683 -6.4655,0 -11.70683,-5.24132 -11.70683,-11.70683 0,-6.4655 5.24133,-11.70683 11.70683,-11.70683 6.46551,0 11.70684,5.24133 11.70684,11.70683 z"
   sodipodi:ry="11.706833"
   sodipodi:rx="11.706833"
   sodipodi:cy="463.67575"
   sodipodi:cx="313.85461"
   id="path4084"
   style="display:inline;fill:#0000ff;stroke:#ffffff"
   sodipodi:type="arc" /><text
   xml:space="preserve"
   style="font-size:8px;font-style:normal;font-weight:normal;line-height:125%;letter-spacing:0px;word-spacing:0px;fill:#ffffff;fill-opacity:1;stroke:none;font-family:Sans"
   x="237.79428"
   y="-451.77228"
   id="text4090"
   sodipodi:linespacing="125%"
   transform="scale(1,-1)"><tspan
     sodipodi:role="line"
     id="tspan4092"
     x="237.79428"
     y="-451.77228">ZOOM</tspan></text>



<text
   transform="scale(1,-1)"
   sodipodi:linespacing="125%"
   id="text4094"
   y="-359.00955"
   x="368.78653"
   style="font-size:8px;font-style:normal;font-weight:normal;text-align:end;line-height:125%;letter-spacing:0px;word-spacing:0px;text-anchor:end;fill:#ffffff;fill-opacity:1;stroke:none;font-family:Sans"
   xml:space="preserve"><tspan
     y="-359.00955"
     x="368.78653"
     id="tspan4096"
     sodipodi:role="line">BACK</tspan></text>



<text
   xml:space="preserve"
   style="font-size:8px;font-style:normal;font-weight:normal;line-height:125%;letter-spacing:0px;word-spacing:0px;fill:#ffffff;fill-opacity:1;stroke:none;font-family:Sans"
   x="237.70444"
   y="-359.00955"
   id="text4098"
   sodipodi:linespacing="125%"
   transform="scale(1,-1)"><tspan
     sodipodi:role="line"
     id="tspan4100"
     x="237.70444"
     y="-359.00955">CLOSE</tspan></text>



<text
   transform="scale(1,-1)"
   sodipodi:linespacing="125%"
   id="text4102"
   y="-451.77228"
   x="369.47012"
   style="font-size:8px;font-style:normal;font-weight:normal;text-align:end;line-height:125%;letter-spacing:0px;word-spacing:0px;text-anchor:end;fill:#ffffff;fill-opacity:1;stroke:none;font-family:Sans"
   xml:space="preserve"><tspan
     y="-451.77228"
     x="369.47012"
     id="tspan4104"
     sodipodi:role="line">GUIDE</tspan></text>



<path
   sodipodi:type="arc"
   style="fill:#000000;stroke:#ffffff"
   id="path4108"
   sodipodi:cx="322.21664"
   sodipodi:cy="501.58359"
   sodipodi:rx="11.149364"
   sodipodi:ry="11.149364"
   d="m 333.36601,501.58359 c 0,6.15762 -4.99174,11.14936 -11.14937,11.14936 -6.15762,0 -11.14936,-4.99174 -11.14936,-11.14936 0,-6.15763 4.99174,-11.14937 11.14936,-11.14937 6.15763,0 11.14937,4.99174 11.14937,11.14937 z"
   transform="matrix(0.8,0,0,-0.8,0,841.88976)" /><path
   transform="matrix(0.8,0,0,-0.8,91.870763,748.2351)"
   d="m 333.36601,501.58359 c 0,6.15762 -4.99174,11.14936 -11.14937,11.14936 -6.15762,0 -11.14936,-4.99174 -11.14936,-11.14936 0,-6.15763 4.99174,-11.14937 11.14936,-11.14937 6.15763,0 11.14937,4.99174 11.14937,11.14937 z"
   sodipodi:ry="11.149364"
   sodipodi:rx="11.149364"
   sodipodi:cy="501.58359"
   sodipodi:cx="322.21664"
   id="path4110"
   style="fill:#000000;stroke:#ffffff"
   sodipodi:type="arc" /><path
   sodipodi:type="arc"
   style="fill:#000000;stroke:#ffffff"
   id="path4112"
   sodipodi:cx="322.21664"
   sodipodi:cy="501.58359"
   sodipodi:rx="11.149364"
   sodipodi:ry="11.149364"
   d="m 333.36601,501.58359 c 0,6.15762 -4.99174,11.14936 -11.14937,11.14936 -6.15762,0 -11.14936,-4.99174 -11.14936,-11.14936 0,-6.15763 4.99174,-11.14937 11.14936,-11.14937 6.15763,0 11.14937,4.99174 11.14937,11.14937 z"
   transform="matrix(0.8,0,0,-0.8,90.978814,843.22768)" /><path
   transform="matrix(0.8,0,0,-0.8,-0.89194915,749.12705)"
   d="m 333.36601,501.58359 c 0,6.15762 -4.99174,11.14936 -11.14937,11.14936 -6.15762,0 -11.14936,-4.99174 -11.14936,-11.14936 0,-6.15763 4.99174,-11.14937 11.14936,-11.14937 6.15763,0 11.14937,4.99174 11.14937,11.14937 z"
   sodipodi:ry="11.149364"
   sodipodi:rx="11.149364"
   sodipodi:cy="501.58359"
   sodipodi:cx="322.21664"
   id="path4114"
   style="fill:#000000;stroke:#ffffff"
   sodipodi:type="arc" /><path
   sodipodi:type="arc"
   style="fill:#b3b3b3;stroke:#ffffff"
   id="path4118"
   sodipodi:cx="377.96344"
   sodipodi:cy="558.44531"
   sodipodi:rx="59.649101"
   sodipodi:ry="59.649101"
   d="m 437.61254,558.44531 c 0,32.94329 -26.70581,59.6491 -59.6491,59.6491 -32.94329,0 -59.6491,-26.70581 -59.6491,-59.6491 0,-32.94329 26.70581,-59.6491 59.6491,-59.6491 32.94329,0 59.6491,26.70581 59.6491,59.6491 z"
   transform="matrix(0.8,0,0,-0.8,-0.44597458,840.99781)" /><path
   transform="matrix(0.33288748,0,0,-0.33288748,176.10548,580.14101)"
   d="m 437.61254,558.44531 c 0,32.94329 -26.70581,59.6491 -59.6491,59.6491 -32.94329,0 -59.6491,-26.70581 -59.6491,-59.6491 0,-32.94329 26.70581,-59.6491 59.6491,-59.6491 32.94329,0 59.6491,26.70581 59.6491,59.6491 z"
   sodipodi:ry="59.649101"
   sodipodi:rx="59.649101"
   sodipodi:cy="558.44531"
   sodipodi:cx="377.96344"
   id="path4120"
   style="fill:#000000;stroke:#ffffff"
   sodipodi:type="arc" /><text
   xml:space="preserve"
   style="font-size:19.20000076px;font-style:normal;font-weight:normal;text-align:center;line-height:125%;letter-spacing:0px;word-spacing:0px;text-anchor:middle;fill:#ffffff;fill-opacity:1;stroke:none;font-family:Sans"
   x="301.18884"
   y="-387.2525"
   id="text4122"
   sodipodi:linespacing="125%"
   transform="scale(1,-1)"><tspan
     sodipodi:role="line"
     id="tspan4124"
     x="301.18884"
     y="-387.2525">OK</tspan></text>



<text
   xml:space="preserve"
   style="font-size:9.60000038000000089px;font-style:normal;font-weight:normal;text-align:center;line-height:125%;letter-spacing:0px;word-spacing:0px;text-anchor:middle;fill:#00ffff;fill-opacity:1;stroke:none;font-family:Sans"
   x="303.51047"
   y="-324.22351"
   id="text4126"
   sodipodi:linespacing="125%"
   transform="scale(1,-1)"><tspan
     sodipodi:role="line"
     id="tspan4128"
     x="303.51047"
     y="-324.22351">YouView</tspan></text>



<path
   transform="matrix(1.029699,0,0,-1.029699,-28.969412,826.87844)"
   d="m 333.36601,501.58359 c 0,6.15762 -4.99174,11.14936 -11.14937,11.14936 -6.15762,0 -11.14936,-4.99174 -11.14936,-11.14936 0,-6.15763 4.99174,-11.14937 11.14936,-11.14937 6.15763,0 11.14937,4.99174 11.14937,11.14937 z"
   sodipodi:ry="11.149364"
   sodipodi:rx="11.149364"
   sodipodi:cy="501.58359"
   sodipodi:cx="322.21664"
   id="path4132"
   style="fill:none;stroke:#00ffff"
   sodipodi:type="arc" /><path
   sodipodi:type="arc"
   style="fill:#000000;stroke:#ffffff"
   id="path4130"
   sodipodi:cx="322.21664"
   sodipodi:cy="501.58359"
   sodipodi:rx="11.149364"
   sodipodi:ry="11.149364"
   d="m 333.36601,501.58359 c 0,6.15762 -4.99174,11.14936 -11.14937,11.14936 -6.15762,0 -11.14936,-4.99174 -11.14936,-11.14936 0,-6.15763 4.99174,-11.14937 11.14936,-11.14937 6.15763,0 11.14937,4.99174 11.14937,11.14937 z"
   transform="matrix(0.8,0,0,-0.8,45.043432,711.66519)" /><path
   transform="matrix(0.8,0,0,-0.8,45.043432,665.72981)"
   d="m 333.36601,501.58359 c 0,6.15762 -4.99174,11.14936 -11.14937,11.14936 -6.15762,0 -11.14936,-4.99174 -11.14936,-11.14936 0,-6.15763 4.99174,-11.14937 11.14936,-11.14937 6.15763,0 11.14937,4.99174 11.14937,11.14937 z"
   sodipodi:ry="11.149364"
   sodipodi:rx="11.149364"
   sodipodi:cy="501.58359"
   sodipodi:cx="322.21664"
   id="path4134"
   style="fill:#000000;stroke:#ffffff"
   sodipodi:type="arc" /><rect
   style="fill:#000000;stroke:#ffffff"
   id="rect4136"
   width="35.677967"
   height="90.309853"
   x="302.14777"
   y="647.08276"
   transform="matrix(0.8,0,0,-0.8,0,841.88976)"
   ry="9.198225"
   rx="8.3620234" /><rect
   rx="6.6896186"
   ry="7.3585801"
   transform="scale(1,-1)"
   y="-324.22354"
   x="333.58899"
   height="72.247879"
   width="28.542374"
   id="rect4138"
   style="fill:#000000;stroke:#ffffff;stroke-width:0.80000001" /><text
   xml:space="preserve"
   style="font-size:12.80000019px;font-style:normal;font-weight:bold;line-height:125%;letter-spacing:0px;word-spacing:0px;fill:#ffffff;fill-opacity:1;stroke:none;font-family:Sans;-inkscape-font-specification:Sans Bold"
   x="300.36389"
   y="-277.84216"
   id="text4140"
   sodipodi:linespacing="125%"
   transform="scale(1,-1)"><tspan
     sodipodi:role="line"
     id="tspan4142"
     x="300.36389"
     y="-277.84216">i</tspan></text>



</g></svg>